<svg width="22" height="26" viewBox="0 0 22 26" fill="none" xmlns="http://www.w3.org/2000/svg">
<g id="logo icon">
<path id="Vector 1" d="M3.39371 15.2294L8.30925 15.0848L9.9019 11.634C10.0724 11.2647 9.75468 10.8611 9.35767 10.9497C8.03945 11.2438 6.18417 11.7307 5.14258 12.2515C4.14242 12.7515 3.39233 13.7831 2.96268 14.5722C2.79188 14.8859 3.03669 15.2399 3.39371 15.2294Z" fill="#3B71FE"/>
<path id="Vector 2" d="M19.4998 24.5435L15.2851 17.1677C14.9147 16.5195 13.9901 16.4898 13.5762 17.1111C12.2824 19.0532 10.4845 21.6988 9.64239 22.7515C8.57572 24.0848 7.42017 24.307 6.97572 24.2515C5.75351 24.1959 2.97576 23.9848 1.64242 23.5848C0.309091 23.1848 1.00252 22.3662 1.64242 22.0848C2.40622 21.7489 4.30909 21.1514 5.64242 20.7515C6.97576 20.3515 7.97576 18.807 8.30909 18.0848L13.3091 8.58471C14.5869 5.9736 17.6091 0.784715 19.4758 0.918048C21.3424 1.05138 20.8091 3.08471 20.3091 4.08471L17.638 9.89837C17.5336 10.1254 17.5175 10.3816 17.5938 10.6195C18.5792 13.6931 20.4637 19.5872 20.9758 21.2514C21.3996 22.6289 20.7989 23.8871 20.2277 24.6245C20.0318 24.8774 19.6585 24.8213 19.4998 24.5435Z" fill="#3B71FE"/>
</g>
</svg>
